<?xml version="1.0" standalone="no"?><svg xmlns="http://www.w3.org/2000/svg" viewBox="0 0 1440 320"><path fill="#8f30d5" fill-opacity="0.8" d="M0,160L30,154.7C60,149,120,139,180,144C240,149,300,171,360,186.7C420,203,480,213,540,186.7C600,160,660,96,720,101.3C780,107,840,181,900,192C960,203,1020,149,1080,122.7C1140,96,1200,96,1260,106.7C1320,117,1380,139,1410,149.3L1440,160L1440,320L1410,320C1380,320,1320,320,1260,320C1200,320,1140,320,1080,320C1020,320,960,320,900,320C840,320,780,320,720,320C660,320,600,320,540,320C480,320,420,320,360,320C300,320,240,320,180,320C120,320,60,320,30,320L0,320Z"></path></svg>